<svg width="417" height="94" viewBox="0 0 417 94" fill="none" xmlns="http://www.w3.org/2000/svg">
<rect width="417" height="94" rx="25" fill="#2B2D42"/>
<path d="M41.642 61V39.1818H44.2841V50.0057H44.5398L54.3409 39.1818H57.7926L48.6307 49.0256L57.7926 61H54.5966L47.0114 50.858L44.2841 53.9261V61H41.642ZM63.3857 51.1562V61H60.8714V44.6364H63.3004V47.1932H63.5135C63.897 46.3622 64.4794 45.6946 65.2607 45.1903C66.0419 44.679 67.0504 44.4233 68.2862 44.4233C69.3942 44.4233 70.3636 44.6506 71.1946 45.1051C72.0256 45.5526 72.6719 46.2344 73.1335 47.1506C73.5952 48.0597 73.826 49.2102 73.826 50.6023V61H71.3118V50.7727C71.3118 49.4872 70.978 48.4858 70.3104 47.7685C69.6428 47.044 68.7266 46.6818 67.5618 46.6818C66.7592 46.6818 66.0419 46.8558 65.4098 47.2038C64.7848 47.5518 64.2912 48.0597 63.929 48.7273C63.5668 49.3949 63.3857 50.2045 63.3857 51.1562ZM85.068 61.3409C83.5907 61.3409 82.2946 60.9893 81.1795 60.2862C80.0716 59.5831 79.2051 58.5994 78.5801 57.3352C77.9622 56.071 77.6532 54.5937 77.6532 52.9034C77.6532 51.1989 77.9622 49.7109 78.5801 48.4396C79.2051 47.1683 80.0716 46.1811 81.1795 45.478C82.2946 44.7749 83.5907 44.4233 85.068 44.4233C86.5453 44.4233 87.8379 44.7749 88.9458 45.478C90.0609 46.1811 90.9274 47.1683 91.5453 48.4396C92.1703 49.7109 92.4828 51.1989 92.4828 52.9034C92.4828 54.5937 92.1703 56.071 91.5453 57.3352C90.9274 58.5994 90.0609 59.5831 88.9458 60.2862C87.8379 60.9893 86.5453 61.3409 85.068 61.3409ZM85.068 59.0824C86.1902 59.0824 87.1135 58.7947 87.8379 58.2195C88.5623 57.6442 89.0985 56.8878 89.4466 55.9503C89.7946 55.0128 89.9686 53.9972 89.9686 52.9034C89.9686 51.8097 89.7946 50.7905 89.4466 49.8459C89.0985 48.9013 88.5623 48.1378 87.8379 47.5554C87.1135 46.973 86.1902 46.6818 85.068 46.6818C83.9458 46.6818 83.0225 46.973 82.2981 47.5554C81.5737 48.1378 81.0375 48.9013 80.6895 49.8459C80.3414 50.7905 80.1674 51.8097 80.1674 52.9034C80.1674 53.9972 80.3414 55.0128 80.6895 55.9503C81.0375 56.8878 81.5737 57.6442 82.2981 58.2195C83.0225 58.7947 83.9458 59.0824 85.068 59.0824ZM99.4714 61L94.4856 44.6364H97.1277L100.665 57.1648H100.835L104.329 44.6364H107.014L110.466 57.1222H110.636L114.173 44.6364H116.815L111.829 61H109.358L105.778 48.429H105.523L101.943 61H99.4714ZM122.653 39.1818V61H120.139V39.1818H122.653ZM134.119 61.3409C132.542 61.3409 131.182 60.9929 130.039 60.2969C128.902 59.5938 128.025 58.6136 127.407 57.3565C126.797 56.0923 126.491 54.6222 126.491 52.946C126.491 51.2699 126.797 49.7926 127.407 48.5142C128.025 47.2287 128.885 46.2273 129.985 45.5099C131.093 44.7855 132.386 44.4233 133.863 44.4233C134.716 44.4233 135.557 44.5653 136.388 44.8494C137.219 45.1335 137.975 45.5952 138.657 46.2344C139.339 46.8665 139.882 47.7045 140.287 48.7486C140.692 49.7926 140.895 51.0781 140.895 52.6051V53.6705H128.281V51.4972H138.338C138.338 50.5739 138.153 49.75 137.784 49.0256C137.422 48.3011 136.903 47.7294 136.228 47.3104C135.561 46.8913 134.772 46.6818 133.863 46.6818C132.862 46.6818 131.995 46.9304 131.264 47.4276C130.539 47.9176 129.982 48.5568 129.591 49.3452C129.201 50.1335 129.005 50.9787 129.005 51.8807V53.3295C129.005 54.5653 129.218 55.6129 129.645 56.4723C130.078 57.3246 130.678 57.9744 131.445 58.4219C132.212 58.8622 133.103 59.0824 134.119 59.0824C134.779 59.0824 135.376 58.9901 135.909 58.8054C136.449 58.6136 136.914 58.3295 137.304 57.9531C137.695 57.5696 137.997 57.0937 138.21 56.5256L140.639 57.2074C140.383 58.0312 139.953 58.7557 139.35 59.3807C138.746 59.9986 138 60.4815 137.113 60.8295C136.225 61.1705 135.227 61.3409 134.119 61.3409ZM150.898 61.3409C149.534 61.3409 148.331 60.9964 147.287 60.3075C146.243 59.6115 145.426 58.6314 144.836 57.3672C144.247 56.0959 143.952 54.5938 143.952 52.8608C143.952 51.142 144.247 49.6506 144.836 48.3864C145.426 47.1222 146.246 46.1456 147.297 45.4567C148.348 44.7678 149.563 44.4233 150.941 44.4233C152.006 44.4233 152.848 44.6009 153.466 44.956C154.091 45.304 154.566 45.7017 154.893 46.1491C155.227 46.5895 155.486 46.9517 155.671 47.2358H155.884V39.1818H158.398V61H155.969V58.4858H155.671C155.486 58.7841 155.223 59.1605 154.882 59.6151C154.542 60.0625 154.055 60.4638 153.423 60.8189C152.791 61.1669 151.949 61.3409 150.898 61.3409ZM151.239 59.0824C152.248 59.0824 153.1 58.8196 153.796 58.294C154.492 57.7614 155.021 57.0263 155.383 56.0888C155.745 55.1442 155.926 54.054 155.926 52.8182C155.926 51.5966 155.749 50.5277 155.394 49.6115C155.039 48.6882 154.513 47.9709 153.817 47.4595C153.121 46.9411 152.262 46.6818 151.239 46.6818C150.174 46.6818 149.286 46.9553 148.576 47.5021C147.873 48.0419 147.343 48.777 146.988 49.7074C146.64 50.6307 146.466 51.6676 146.466 52.8182C146.466 53.983 146.644 55.0412 146.999 55.9929C147.361 56.9375 147.894 57.6903 148.597 58.2514C149.307 58.8054 150.188 59.0824 151.239 59.0824ZM169.957 67.4773C168.743 67.4773 167.699 67.321 166.825 67.0085C165.951 66.7031 165.223 66.2983 164.641 65.794C164.066 65.2969 163.608 64.7642 163.267 64.196L165.27 62.7898C165.497 63.0881 165.784 63.429 166.132 63.8125C166.48 64.2031 166.956 64.5405 167.56 64.8246C168.171 65.1158 168.97 65.2614 169.957 65.2614C171.278 65.2614 172.368 64.9418 173.228 64.3026C174.087 63.6634 174.517 62.6619 174.517 61.2983V57.9744H174.304C174.119 58.2727 173.856 58.642 173.515 59.0824C173.181 59.5156 172.699 59.9027 172.066 60.2436C171.441 60.5774 170.596 60.7443 169.531 60.7443C168.21 60.7443 167.024 60.4318 165.973 59.8068C164.929 59.1818 164.101 58.2727 163.49 57.0795C162.887 55.8864 162.585 54.4375 162.585 52.733C162.585 51.0568 162.88 49.5973 163.469 48.3544C164.059 47.1044 164.879 46.1385 165.93 45.4567C166.981 44.7678 168.196 44.4233 169.574 44.4233C170.639 44.4233 171.484 44.6009 172.109 44.956C172.741 45.304 173.224 45.7017 173.558 46.1491C173.899 46.5895 174.162 46.9517 174.346 47.2358H174.602V44.6364H177.031V61.4688C177.031 62.875 176.711 64.0185 176.072 64.8991C175.44 65.7869 174.588 66.4368 173.515 66.8487C172.45 67.2678 171.264 67.4773 169.957 67.4773ZM169.872 58.4858C170.88 58.4858 171.733 58.255 172.429 57.7933C173.125 57.3317 173.654 56.6676 174.016 55.8011C174.378 54.9347 174.559 53.8977 174.559 52.6903C174.559 51.5114 174.382 50.4709 174.027 49.5689C173.672 48.6669 173.146 47.9602 172.45 47.4489C171.754 46.9375 170.895 46.6818 169.872 46.6818C168.806 46.6818 167.919 46.9517 167.208 47.4915C166.505 48.0312 165.976 48.7557 165.621 49.6648C165.273 50.5739 165.099 51.5824 165.099 52.6903C165.099 53.8267 165.277 54.8317 165.632 55.7053C165.994 56.5717 166.527 57.2536 167.23 57.7507C167.94 58.2408 168.821 58.4858 169.872 58.4858ZM188.494 61.3409C186.917 61.3409 185.557 60.9929 184.414 60.2969C183.277 59.5938 182.4 58.6136 181.782 57.3565C181.172 56.0923 180.866 54.6222 180.866 52.946C180.866 51.2699 181.172 49.7926 181.782 48.5142C182.4 47.2287 183.26 46.2273 184.36 45.5099C185.468 44.7855 186.761 44.4233 188.238 44.4233C189.091 44.4233 189.932 44.5653 190.763 44.8494C191.594 45.1335 192.35 45.5952 193.032 46.2344C193.714 46.8665 194.257 47.7045 194.662 48.7486C195.067 49.7926 195.27 51.0781 195.27 52.6051V53.6705H182.656V51.4972H192.713C192.713 50.5739 192.528 49.75 192.159 49.0256C191.797 48.3011 191.278 47.7294 190.603 47.3104C189.936 46.8913 189.147 46.6818 188.238 46.6818C187.237 46.6818 186.37 46.9304 185.639 47.4276C184.914 47.9176 184.357 48.5568 183.966 49.3452C183.576 50.1335 183.38 50.9787 183.38 51.8807V53.3295C183.38 54.5653 183.593 55.6129 184.02 56.4723C184.453 57.3246 185.053 57.9744 185.82 58.4219C186.587 58.8622 187.478 59.0824 188.494 59.0824C189.154 59.0824 189.751 58.9901 190.284 58.8054C190.824 58.6136 191.289 58.3295 191.679 57.9531C192.07 57.5696 192.372 57.0937 192.585 56.5256L195.014 57.2074C194.758 58.0312 194.328 58.7557 193.725 59.3807C193.121 59.9986 192.375 60.4815 191.488 60.8295C190.6 61.1705 189.602 61.3409 188.494 61.3409ZM207.873 61V39.1818H220.955V41.5256H210.515V48.8977H219.975V51.2415H210.515V61H207.873ZM230.799 61.3409C229.222 61.3409 227.862 60.9929 226.718 60.2969C225.582 59.5938 224.705 58.6136 224.087 57.3565C223.476 56.0923 223.171 54.6222 223.171 52.946C223.171 51.2699 223.476 49.7926 224.087 48.5142C224.705 47.2287 225.564 46.2273 226.665 45.5099C227.773 44.7855 229.066 44.4233 230.543 44.4233C231.395 44.4233 232.237 44.5653 233.068 44.8494C233.899 45.1335 234.655 45.5952 235.337 46.2344C236.019 46.8665 236.562 47.7045 236.967 48.7486C237.372 49.7926 237.574 51.0781 237.574 52.6051V53.6705H224.961V51.4972H235.017C235.017 50.5739 234.833 49.75 234.463 49.0256C234.101 48.3011 233.583 47.7294 232.908 47.3104C232.24 46.8913 231.452 46.6818 230.543 46.6818C229.542 46.6818 228.675 46.9304 227.944 47.4276C227.219 47.9176 226.662 48.5568 226.271 49.3452C225.88 50.1335 225.685 50.9787 225.685 51.8807V53.3295C225.685 54.5653 225.898 55.6129 226.324 56.4723C226.757 57.3246 227.358 57.9744 228.125 58.4219C228.892 58.8622 229.783 59.0824 230.799 59.0824C231.459 59.0824 232.056 58.9901 232.588 58.8054C233.128 58.6136 233.593 58.3295 233.984 57.9531C234.375 57.5696 234.676 57.0937 234.89 56.5256L237.319 57.2074C237.063 58.0312 236.633 58.7557 236.029 59.3807C235.426 59.9986 234.68 60.4815 233.792 60.8295C232.904 61.1705 231.907 61.3409 230.799 61.3409ZM252.99 48.3011L250.731 48.9403C250.589 48.5639 250.38 48.1982 250.103 47.843C249.833 47.4808 249.463 47.1825 248.995 46.9482C248.526 46.7138 247.926 46.5966 247.194 46.5966C246.193 46.5966 245.358 46.8274 244.691 47.2891C244.03 47.7436 243.7 48.3224 243.7 49.0256C243.7 49.6506 243.927 50.1442 244.382 50.5064C244.836 50.8686 245.547 51.1705 246.512 51.4119L248.941 52.0085C250.404 52.3636 251.495 52.907 252.212 53.6385C252.929 54.3629 253.288 55.2969 253.288 56.4403C253.288 57.3778 253.018 58.2159 252.478 58.9545C251.946 59.6932 251.2 60.2756 250.241 60.7017C249.282 61.1278 248.167 61.3409 246.896 61.3409C245.227 61.3409 243.846 60.9787 242.752 60.2543C241.658 59.5298 240.966 58.4716 240.674 57.0795L243.061 56.483C243.288 57.3636 243.718 58.0241 244.35 58.4645C244.989 58.9048 245.824 59.125 246.853 59.125C248.025 59.125 248.956 58.8764 249.645 58.3793C250.341 57.875 250.689 57.2713 250.689 56.5682C250.689 56 250.49 55.5241 250.092 55.1406C249.694 54.75 249.083 54.4588 248.26 54.267L245.532 53.6278C244.034 53.2727 242.933 52.7223 242.23 51.9766C241.534 51.2237 241.186 50.2827 241.186 49.1534C241.186 48.2301 241.445 47.4134 241.963 46.7031C242.489 45.9929 243.203 45.4354 244.105 45.0305C245.014 44.6257 246.044 44.4233 247.194 44.4233C248.814 44.4233 250.085 44.7784 251.008 45.4886C251.939 46.1989 252.599 47.1364 252.99 48.3011ZM264.189 44.6364V46.767H255.709V44.6364H264.189ZM258.181 40.7159H260.695V56.3125C260.695 57.0227 260.798 57.5554 261.004 57.9105C261.217 58.2585 261.487 58.4929 261.813 58.6136C262.147 58.7273 262.499 58.7841 262.868 58.7841C263.145 58.7841 263.372 58.7699 263.55 58.7415C263.727 58.706 263.869 58.6776 263.976 58.6562L264.487 60.9148C264.317 60.9787 264.079 61.0426 263.774 61.1065C263.468 61.1776 263.081 61.2131 262.612 61.2131C261.902 61.2131 261.206 61.0604 260.524 60.755C259.85 60.4496 259.289 59.9844 258.841 59.3594C258.401 58.7344 258.181 57.946 258.181 56.9943V40.7159ZM276.366 61V59.0824L283.568 51.1989C284.413 50.2756 285.109 49.473 285.656 48.7912C286.203 48.1023 286.607 47.456 286.87 46.8523C287.14 46.2415 287.275 45.6023 287.275 44.9347C287.275 44.1676 287.09 43.5036 286.721 42.9425C286.359 42.3814 285.862 41.9482 285.23 41.6428C284.597 41.3374 283.887 41.1847 283.099 41.1847C282.261 41.1847 281.529 41.3587 280.904 41.7067C280.286 42.0476 279.807 42.527 279.466 43.1449C279.132 43.7628 278.965 44.4872 278.965 45.3182H276.451C276.451 44.0398 276.746 42.9176 277.335 41.9517C277.925 40.9858 278.727 40.233 279.743 39.6932C280.766 39.1534 281.913 38.8835 283.184 38.8835C284.463 38.8835 285.595 39.1534 286.583 39.6932C287.57 40.233 288.344 40.9609 288.905 41.8771C289.466 42.7933 289.747 43.8125 289.747 44.9347C289.747 45.7372 289.601 46.522 289.31 47.2891C289.026 48.049 288.529 48.8977 287.818 49.8352C287.115 50.7656 286.139 51.902 284.889 53.2443L279.988 58.4858V58.6562H290.13V61H276.366ZM301.646 61.2983C300.041 61.2983 298.674 60.8615 297.545 59.9879C296.416 59.1072 295.553 57.8324 294.956 56.1634C294.36 54.4872 294.061 52.4631 294.061 50.0909C294.061 47.733 294.36 45.7195 294.956 44.0504C295.56 42.3743 296.426 41.0959 297.556 40.2152C298.692 39.3274 300.056 38.8835 301.646 38.8835C303.237 38.8835 304.597 39.3274 305.727 40.2152C306.863 41.0959 307.73 42.3743 308.326 44.0504C308.93 45.7195 309.232 47.733 309.232 50.0909C309.232 52.4631 308.933 54.4872 308.337 56.1634C307.74 57.8324 306.877 59.1072 305.748 59.9879C304.619 60.8615 303.252 61.2983 301.646 61.2983ZM301.646 58.9545C303.237 58.9545 304.473 58.1875 305.354 56.6534C306.235 55.1193 306.675 52.9318 306.675 50.0909C306.675 48.2017 306.472 46.593 306.068 45.2649C305.67 43.9368 305.095 42.9247 304.342 42.2287C303.596 41.5327 302.698 41.1847 301.646 41.1847C300.07 41.1847 298.838 41.9624 297.95 43.5178C297.062 45.0661 296.618 47.2571 296.618 50.0909C296.618 51.9801 296.817 53.5852 297.215 54.9062C297.612 56.2273 298.184 57.2322 298.93 57.9212C299.683 58.6101 300.588 58.9545 301.646 58.9545ZM313.28 61V59.0824L320.482 51.1989C321.327 50.2756 322.023 49.473 322.57 48.7912C323.117 48.1023 323.521 47.456 323.784 46.8523C324.054 46.2415 324.189 45.6023 324.189 44.9347C324.189 44.1676 324.004 43.5036 323.635 42.9425C323.273 42.3814 322.776 41.9482 322.144 41.6428C321.512 41.3374 320.801 41.1847 320.013 41.1847C319.175 41.1847 318.443 41.3587 317.818 41.7067C317.2 42.0476 316.721 42.527 316.38 43.1449C316.046 43.7628 315.879 44.4872 315.879 45.3182H313.365C313.365 44.0398 313.66 42.9176 314.249 41.9517C314.839 40.9858 315.642 40.233 316.657 39.6932C317.68 39.1534 318.827 38.8835 320.098 38.8835C321.377 38.8835 322.509 39.1534 323.497 39.6932C324.484 40.233 325.258 40.9609 325.819 41.8771C326.38 42.7933 326.661 43.8125 326.661 44.9347C326.661 45.7372 326.515 46.522 326.224 47.2891C325.94 48.049 325.443 48.8977 324.732 49.8352C324.029 50.7656 323.053 51.902 321.803 53.2443L316.902 58.4858V58.6562H327.044V61H313.28ZM338.688 61.2983C337.794 61.2841 336.899 61.1136 336.004 60.7869C335.109 60.4602 334.292 59.9098 333.553 59.1357C332.815 58.3544 332.222 57.2997 331.774 55.9716C331.327 54.6364 331.103 52.9602 331.103 50.9432C331.103 49.0114 331.284 47.2997 331.646 45.8082C332.009 44.3097 332.534 43.049 333.223 42.0263C333.912 40.9964 334.743 40.2152 335.716 39.6825C336.696 39.1499 337.801 38.8835 339.029 38.8835C340.251 38.8835 341.338 39.1286 342.289 39.6186C343.248 40.1016 344.029 40.7763 344.633 41.6428C345.237 42.5092 345.627 43.5071 345.805 44.6364H343.205C342.964 43.6562 342.495 42.843 341.799 42.1967C341.103 41.5504 340.18 41.2273 339.029 41.2273C337.339 41.2273 336.007 41.9624 335.034 43.4325C334.068 44.9027 333.582 46.9659 333.575 49.6222H333.745C334.143 49.0185 334.615 48.5036 335.162 48.0774C335.716 47.6442 336.327 47.3104 336.994 47.076C337.662 46.8416 338.369 46.7244 339.115 46.7244C340.365 46.7244 341.508 47.0369 342.545 47.6619C343.582 48.2798 344.413 49.1357 345.038 50.2294C345.663 51.3161 345.975 52.5625 345.975 53.9688C345.975 55.3182 345.673 56.554 345.07 57.6761C344.466 58.7912 343.617 59.679 342.524 60.3395C341.437 60.9929 340.159 61.3125 338.688 61.2983ZM338.688 58.9545C339.583 58.9545 340.386 58.7308 341.096 58.2834C341.813 57.8359 342.378 57.2358 342.79 56.483C343.209 55.7301 343.419 54.892 343.419 53.9688C343.419 53.0668 343.216 52.2464 342.811 51.5078C342.414 50.7621 341.863 50.169 341.16 49.7287C340.464 49.2884 339.669 49.0682 338.774 49.0682C338.099 49.0682 337.47 49.2031 336.888 49.473C336.306 49.7358 335.794 50.098 335.354 50.5597C334.921 51.0213 334.58 51.5504 334.331 52.147C334.083 52.7365 333.958 53.358 333.958 54.0114C333.958 54.8778 334.161 55.6875 334.566 56.4403C334.977 57.1932 335.539 57.8004 336.249 58.2621C336.966 58.7237 337.779 58.9545 338.688 58.9545Z" fill="white"/>
</svg>
